<svg width="145" height="46" viewBox="0 0 145 46" fill="none" xmlns="http://www.w3.org/2000/svg">
<path d="M61.9031 26.3967H62.0648L67.4021 10.6843H74.5184L65.4612 33.848H57.8597L48.3174 10.6843H56.0806L61.9031 26.3967Z" fill="#37474D"/>
<path d="M20.4992 16.3543H13.5446V23.9676C13.5446 24.6155 13.5446 25.1014 13.7063 25.7494C13.7063 26.2353 13.8681 26.7213 14.1916 27.0453C14.3533 27.3692 14.8385 27.6932 15.3237 27.8552C15.8089 28.0172 16.4558 28.1791 17.2645 28.1791C17.7497 28.1791 18.2349 28.1791 18.8819 28.0172C19.5288 28.0172 20.014 27.6932 20.4992 27.5312V33.5246C19.6905 33.8486 18.7201 34.0105 17.7497 34.1725C16.7793 34.3345 15.9706 34.3345 15.0002 34.3345C13.7063 34.3345 12.4125 34.1725 11.2803 34.0106C10.1482 33.6866 9.17778 33.3626 8.3691 32.8767C7.56043 32.3907 6.91349 31.5808 6.42829 30.7709C5.94308 29.961 5.78135 28.8271 5.78135 27.5312V16.5163H0.767578V10.8469H5.78135V3.88159H13.5446V10.6849H20.4992V16.3543Z" fill="#37474D"/>
<path d="M22.6016 10.6848H29.7179V14.4104C30.5266 12.9526 31.3352 11.9807 32.4674 11.1708C33.4378 10.5228 34.8934 10.0369 36.349 10.0369H37.6429C38.1281 10.0369 38.4515 10.1988 38.775 10.1988V16.6782C38.2898 16.5162 37.8046 16.3542 37.3194 16.3542C36.8342 16.3542 36.349 16.1922 35.7021 16.1922C34.4082 16.1922 33.276 16.3542 32.4674 16.8402C31.6587 17.1641 31.0118 17.8121 30.6883 18.46C30.2031 19.1079 30.0414 19.9179 29.8796 20.8898C29.7179 21.8617 29.7179 22.8336 29.7179 23.9675V33.5245H22.6016V10.6848Z" fill="#37474D"/>
<path d="M43.9513 8.41682C44.9217 8.41682 45.8921 8.09285 46.5391 7.28293C47.3478 6.47301 47.6712 5.6631 47.6712 4.6912C47.6712 3.7193 47.3478 2.74739 46.5391 2.09946C45.7304 1.28954 44.9217 0.965576 43.9513 0.965576C42.9809 0.965576 42.0105 1.28954 41.3636 2.09946C40.5549 2.90938 40.2314 3.7193 40.2314 4.6912C40.2314 5.6631 40.5549 6.635 41.3636 7.28293C42.0105 7.93087 42.8192 8.41682 43.9513 8.41682Z" fill="#37474D"/>
<path d="M40.3926 10.6843H47.5089V33.686H40.3926V10.6843Z" fill="#37474D"/>
<path d="M86.6494 23.6429H84.7086C83.8999 23.6429 83.0912 23.8049 82.4443 23.9668C81.6356 24.1288 80.9887 24.4528 80.5035 24.9387C80.0183 25.4247 79.6948 26.0726 79.6948 26.7206C79.6948 27.5305 80.0183 28.1784 80.827 28.6644C81.4739 29.1503 82.2826 29.3123 83.0913 29.3123C83.7382 29.3123 84.3851 29.1503 85.0321 28.9883C85.679 28.8264 86.3259 28.5024 86.8112 28.1784C87.2964 27.8545 87.7816 27.3685 87.9433 26.8825C88.2668 26.3966 88.4285 25.7487 88.4285 24.9387V23.4809H86.6494V23.6429ZM88.2668 30.9321C87.4581 32.228 86.3259 33.0379 85.0321 33.5239C83.7382 34.0098 82.2826 34.3338 80.827 34.3338C79.6948 34.3338 78.7244 34.1718 77.754 33.8478C76.7836 33.5239 75.8132 33.0379 75.1663 32.552C74.3576 31.904 73.8724 31.2561 73.3872 30.2842C72.902 29.4743 72.7402 28.3404 72.7402 27.2065C72.7402 25.9106 73.0637 24.7768 73.5489 23.8049C74.0341 22.833 74.6811 22.185 75.4897 21.5371C76.2984 20.8892 77.2688 20.4032 78.4009 20.0792C79.5331 19.7553 80.6652 19.4313 81.7974 19.2693C82.9295 19.1073 84.0617 18.9453 85.1938 18.9453H88.4285C88.4285 17.6495 87.9433 16.6776 87.1346 15.8677C86.1642 15.0577 85.1938 14.7338 83.8999 14.7338C82.7678 14.7338 81.6356 15.0577 80.6652 15.5437C79.6948 16.0296 78.8862 16.6776 78.0775 17.4875L74.3576 13.5999C75.6515 12.304 77.2688 11.4941 79.0479 10.8462C80.827 10.1982 82.6061 9.87427 84.5469 9.87427C86.6494 9.87427 88.2668 10.1982 89.7224 10.6842C91.0162 11.1701 92.1484 11.9801 92.9571 12.952C93.7657 13.9239 94.2509 15.2197 94.5744 16.6776C94.8979 18.1354 95.0596 19.9173 95.0596 21.6991V33.3619H88.5902V30.9321H88.2668Z" fill="#37474D"/>
<path d="M143.741 17.326C143.094 15.8682 142.286 14.5723 141.315 13.4384C140.345 12.3045 139.051 11.4946 137.595 11.0086C136.14 10.3607 134.684 10.1987 133.067 10.1987C131.449 10.1987 129.994 10.5227 128.538 11.0086C127.083 11.6566 125.95 12.4665 124.818 13.4384C123.848 14.5723 122.877 15.7062 122.392 17.326C121.745 18.7839 121.422 20.4037 121.422 22.3475C121.422 24.2913 121.745 25.9112 122.392 27.369C123.039 28.8269 123.848 30.1227 124.818 31.2566C125.789 32.3905 127.083 33.2004 128.538 33.6864C129.994 34.3343 131.449 34.4963 133.067 34.4963C134.684 34.4963 136.14 34.1723 137.595 33.6864C139.051 33.2004 140.183 32.2285 141.315 31.2566C142.286 30.1227 143.256 28.9889 143.741 27.369C144.388 25.9112 144.712 24.2913 144.712 22.3475C144.712 20.4037 144.388 18.7839 143.741 17.326ZM136.948 26.3971C135.978 27.531 134.846 28.0169 133.229 28.0169C131.611 28.0169 130.317 27.531 129.509 26.3971C128.538 25.2632 128.215 23.9674 128.215 22.1855C128.215 20.4037 128.7 19.1078 129.509 17.974C130.479 16.8401 131.611 16.3541 133.229 16.3541C134.846 16.3541 136.14 16.8401 136.948 17.974C137.919 19.1078 138.242 20.4037 138.242 22.1855C138.242 23.9674 137.757 25.4252 136.948 26.3971Z" fill="#37474D"/>
<path d="M113.821 10.8467V13.9244C113.821 13.9244 113.336 13.1144 112.85 12.7905C112.365 12.3045 111.88 11.9806 111.071 11.6566C110.424 11.3326 109.616 11.0087 108.807 10.8467C107.998 10.6847 107.028 10.5227 106.057 10.5227C104.44 10.5227 102.984 10.8467 101.691 11.4946C100.397 12.1425 99.2646 12.9525 98.4559 14.2483C97.6472 15.3822 97.162 16.5161 96.8386 18.1359C96.5151 19.5938 96.3534 21.0516 96.3534 22.6715C96.3534 24.4533 96.6768 26.0731 97.0003 27.531C97.4855 28.9888 97.9707 30.1227 98.7794 31.2566C99.7498 32.3905 101.044 33.2004 102.338 33.6864C103.793 34.3343 105.249 34.4963 107.028 34.4963C108.16 34.4963 109.292 34.1723 110.424 33.8484C111.718 33.3624 112.85 32.5525 113.174 31.4186V33.6864C113.174 35.3062 112.85 36.6021 111.88 37.736C110.909 38.8698 109.454 39.3558 107.19 39.3558C105.734 39.3558 104.764 39.3558 103.308 39.0318C102.014 38.7079 100.397 38.0599 99.2646 37.25L95.8682 42.2715C97.6472 43.5674 99.4263 44.3773 101.367 45.0252C103.308 45.5112 105.411 45.6732 107.351 45.6732C111.88 45.6732 115.115 44.5393 117.217 42.2715C119.481 40.0037 120.29 36.7641 120.29 32.3905V10.8467H113.821ZM112.203 26.3971C111.233 27.531 110.101 28.0169 108.483 28.0169C106.866 28.0169 105.572 27.531 104.764 26.3971C103.793 25.2632 103.47 23.9673 103.47 22.1855C103.47 20.4037 103.955 19.1078 104.764 17.974C105.734 16.8401 106.866 16.3541 108.483 16.3541C110.101 16.3541 111.395 16.8401 112.203 17.974C113.174 19.1078 113.497 20.4037 113.497 22.1855C113.497 23.9673 113.012 25.4252 112.203 26.3971Z" fill="#37474D"/>
</svg>
