<svg width="190" height="41" viewBox="0 0 190 41" fill="none" xmlns="http://www.w3.org/2000/svg">
<g opacity="0.67">
<path d="M78.8029 8.08233V32.3294H74.5934V13.3022H74.5373L67.0162 32.3294H64.2098L56.5204 13.3022H56.4642V32.3294H52.5914V8.08233H58.6532L65.613 26.0431H65.7252L73.0779 8.08233H78.8029ZM82.2828 9.93454C82.2828 9.26101 82.5073 8.69973 83.0125 8.25071C83.5176 7.8017 84.0789 7.57719 84.7524 7.57719C85.4821 7.57719 86.0995 7.8017 86.5485 8.25071C86.9975 8.69973 87.2782 9.26101 87.2782 9.93454C87.2782 10.6081 87.0537 11.1693 86.5485 11.6184C86.0434 12.0674 85.4821 12.2919 84.7524 12.2919C84.0228 12.2919 83.4615 12.0674 83.0125 11.6184C82.5635 11.1132 82.2828 10.5519 82.2828 9.93454ZM86.8292 14.9299V32.3294H82.7319V14.9299H86.8292ZM99.2333 29.3546C99.8507 29.3546 100.524 29.2424 101.254 28.9056C101.984 28.625 102.657 28.2321 103.274 27.7831V31.5997C102.601 31.9926 101.871 32.2733 101.029 32.4416C100.187 32.61 99.2895 32.7223 98.2792 32.7223C95.6973 32.7223 93.6206 31.9365 92.049 30.3088C90.4213 28.6811 89.6355 26.6044 89.6355 24.1348C89.6355 21.3284 90.4774 19.0272 92.1051 17.2311C93.7328 15.435 96.0341 14.537 99.0649 14.537C99.8507 14.537 100.637 14.6492 101.366 14.8176C102.152 14.986 102.769 15.2666 103.218 15.4912V19.4201C102.601 18.9711 101.927 18.5782 101.31 18.3537C100.637 18.1291 99.963 17.9608 99.2894 17.9608C97.6617 17.9608 96.3708 18.4659 95.3605 19.5323C94.3502 20.5987 93.9012 22.0019 93.9012 23.798C93.9012 25.538 94.4064 26.9411 95.3605 27.8953C96.3147 28.8495 97.6056 29.3546 99.2333 29.3546ZM114.893 14.6492C115.23 14.6492 115.51 14.6492 115.791 14.7054C116.072 14.7615 116.296 14.8176 116.464 14.8738V19.0272C116.24 18.8588 115.959 18.6904 115.51 18.5782C115.061 18.4659 114.612 18.3537 113.995 18.3537C112.985 18.3537 112.143 18.8027 111.469 19.6446C110.796 20.4865 110.403 21.7774 110.403 23.5735V32.3294H106.305V14.9299H110.403V17.6801H110.459C110.852 16.726 111.413 15.9963 112.143 15.435C112.928 14.9299 113.826 14.6492 114.893 14.6492ZM116.689 23.9103C116.689 21.0478 117.531 18.7465 119.102 17.0627C120.73 15.3789 122.975 14.537 125.838 14.537C128.532 14.537 130.665 15.3228 132.18 16.9505C133.696 18.5782 134.481 20.7671 134.481 23.5174C134.481 26.3237 133.639 28.5688 132.068 30.2527C130.44 31.9365 128.251 32.7784 125.445 32.7784C122.751 32.7784 120.618 31.9926 119.046 30.421C117.475 28.7934 116.689 26.6044 116.689 23.9103ZM120.955 23.7419C120.955 25.538 121.348 26.9411 122.189 27.8953C123.031 28.8495 124.21 29.3546 125.725 29.3546C127.185 29.3546 128.363 28.9056 129.149 27.8953C129.935 26.9411 130.328 25.538 130.328 23.6296C130.328 21.7774 129.935 20.3742 129.149 19.3639C128.363 18.4098 127.185 17.9046 125.782 17.9046C124.266 17.9046 123.144 18.4098 122.302 19.4201C121.348 20.4865 120.955 21.8897 120.955 23.7419ZM140.599 19.5323C140.599 20.0936 140.768 20.5987 141.161 20.9355C141.553 21.2723 142.339 21.6652 143.63 22.1703C145.258 22.8438 146.436 23.5735 147.054 24.3593C147.727 25.2012 148.064 26.1554 148.064 27.334C148.064 28.9617 147.447 30.2527 146.156 31.263C144.921 32.2733 143.181 32.7223 141.048 32.7223C140.319 32.7223 139.533 32.61 138.635 32.4416C137.737 32.2733 137.007 32.0487 136.39 31.7681V27.7269C137.119 28.2321 137.961 28.6811 138.803 28.9617C139.645 29.2424 140.431 29.4108 141.161 29.4108C142.059 29.4108 142.788 29.2985 143.181 29.0179C143.63 28.7372 143.855 28.3443 143.855 27.7269C143.855 27.1657 143.63 26.7166 143.181 26.2676C142.732 25.8747 141.834 25.4257 140.599 24.9206C139.084 24.3032 138.017 23.5735 137.4 22.7877C136.783 22.0019 136.446 20.9916 136.446 19.7568C136.446 18.1853 137.063 16.8943 138.298 15.884C139.533 14.8738 141.161 14.3686 143.125 14.3686C143.742 14.3686 144.416 14.4247 145.146 14.5931C145.875 14.7615 146.549 14.9299 147.054 15.0983V19.0833C146.493 18.7465 145.875 18.4098 145.146 18.1291C144.416 17.8485 143.686 17.7362 143.013 17.7362C142.227 17.7362 141.61 17.9046 141.217 18.1853C140.824 18.5782 140.599 18.9711 140.599 19.5323ZM149.804 23.9103C149.804 21.0478 150.646 18.7465 152.218 17.0627C153.845 15.3789 156.09 14.537 158.953 14.537C161.647 14.537 163.78 15.3228 165.295 16.9505C166.811 18.5782 167.597 20.7671 167.597 23.5174C167.597 26.3237 166.755 28.5688 165.183 30.2527C163.555 31.9365 161.366 32.7784 158.56 32.7784C155.866 32.7784 153.733 31.9926 152.161 30.421C150.646 28.7934 149.804 26.6044 149.804 23.9103ZM154.07 23.7419C154.07 25.538 154.463 26.9411 155.305 27.8953C156.147 28.8495 157.325 29.3546 158.841 29.3546C160.3 29.3546 161.479 28.9056 162.264 27.8953C163.05 26.9411 163.443 25.538 163.443 23.6296C163.443 21.7774 163.05 20.3742 162.264 19.3639C161.479 18.4098 160.3 17.9046 158.897 17.9046C157.381 17.9046 156.259 18.4098 155.417 19.4201C154.519 20.4865 154.07 21.8897 154.07 23.7419ZM181.235 18.2975H175.118V32.3294H170.964V18.2975H168.046V14.9299H170.964V12.5164C170.964 10.7203 171.582 9.20488 172.76 8.02621C173.939 6.84753 175.454 6.28625 177.307 6.28625C177.812 6.28625 178.261 6.34238 178.654 6.34238C179.047 6.34238 179.383 6.45464 179.664 6.56689V10.1029C179.552 10.0468 179.271 9.93454 178.934 9.82228C178.597 9.71003 178.205 9.6539 177.756 9.6539C176.914 9.6539 176.24 9.93454 175.791 10.4397C175.342 10.9448 175.118 11.7867 175.118 12.797V14.8738H181.235V10.9448L185.333 9.71003V14.8738H189.486V18.2414H185.333V26.3799C185.333 27.4463 185.557 28.176 185.894 28.625C186.287 29.074 186.904 29.2985 187.746 29.2985C187.971 29.2985 188.251 29.2424 188.588 29.1301C188.925 29.0179 189.206 28.9056 189.43 28.7372V32.1049C189.149 32.2733 188.757 32.3855 188.139 32.4978C187.522 32.61 186.96 32.6661 186.343 32.6661C184.603 32.6661 183.312 32.2171 182.47 31.3191C181.628 30.421 181.179 29.0179 181.179 27.1657L181.235 18.2975Z" fill="#B7B7B7"/>
<path d="M19.1956 0H0V19.1956H19.1956V0Z" fill="#B7B7B7"/>
<path d="M40.4117 0H21.2162V19.1956H40.4117V0Z" fill="#B7B7B7"/>
<path d="M19.1956 21.2162H0V40.4118H19.1956V21.2162Z" fill="#B7B7B7"/>
<path d="M40.4118 21.2162H21.2162V40.4118H40.4118V21.2162Z" fill="#B7B7B7"/>
</g>
</svg>
