<svg width="207" height="35" viewBox="0 0 207 35" fill="none" xmlns="http://www.w3.org/2000/svg">
<path d="M81.2109 3.13705C81.2109 1.40268 82.6087 -2.28882e-05 84.3293 -2.28882e-05C86.0558 -2.28882e-05 87.459 1.40268 87.459 3.13705C87.459 4.86945 86.0558 6.27368 84.3293 6.27368C82.6087 6.27368 81.2109 4.86924 81.2109 3.13705Z" fill="#273B7D"/>
<path d="M130.506 24.0045C130.506 22.2695 131.903 20.865 133.623 20.865C135.349 20.865 136.752 22.2695 136.752 24.0045C136.752 25.7351 135.349 27.1411 133.623 27.1411C131.903 27.1411 130.506 25.7354 130.506 24.0045Z" fill="#499FDD"/>
<path d="M29.9334 22.6487C27.2426 22.6487 25.3727 20.5086 25.3727 17.4502C25.3727 14.3924 27.2426 12.2536 29.9334 12.2536C32.6396 12.2536 34.5301 14.3924 34.5301 17.4502C34.5301 20.557 32.679 22.6489 29.9334 22.6489V22.6487ZM29.9334 7.68467C24.2407 7.68467 20.1094 11.7928 20.1094 17.4502C20.1094 23.1076 24.2407 27.2148 29.9334 27.2148C35.6474 27.2148 39.796 23.1076 39.796 17.4502C39.796 11.7928 35.6474 7.68467 29.9334 7.68467ZM75.1588 17.9385C74.9375 17.5215 74.6838 17.1684 74.4135 16.8882L74.2414 16.7052L74.4226 16.5313C74.6839 16.2554 74.951 15.9283 75.2086 15.5491L80.2322 8.06972H74.1337L70.3592 13.9204C70.1455 14.2342 69.7141 14.3924 69.0684 14.3924H68.2081V3.33121C68.2081 1.11875 66.8319 0.817596 65.3452 0.817596H62.8L62.8043 26.9272H68.2081V19.0954H68.7143C69.3303 19.0954 69.7499 19.1667 69.9422 19.5021L72.9231 25.1373C73.7558 26.6664 74.5857 26.9272 76.1468 26.9272H80.288L77.2038 21.8178L75.1588 17.9385ZM101.392 7.64283C98.6436 7.64283 96.8898 8.86575 95.907 9.89997L95.5788 10.2323L95.463 9.78033C95.1743 8.67246 94.2012 8.06296 92.7367 8.06296H90.3148L90.33 26.9207H95.697V18.2292C95.697 17.3794 95.8074 16.642 96.0317 15.9693C96.6291 13.9331 98.2956 12.667 100.378 12.667C102.054 12.667 102.708 13.5524 102.708 15.8407V24.0538C102.708 26.007 103.61 26.9207 105.562 26.9207H108.116L108.107 14.9268C108.107 10.1617 105.787 7.64283 101.394 7.64283H101.392ZM84.3994 8.07124H81.8556L81.873 22.6518H81.8712V26.925H84.5866C84.6207 26.925 84.6481 26.9287 84.6823 26.9287L85.9471 26.925H87.206V26.9176H87.2148L87.2257 10.934C87.2257 9.00543 86.3051 8.07124 84.4013 8.07124H84.3994ZM51.0147 22.6487C48.3241 22.6487 46.4505 20.5086 46.4505 17.4502C46.4505 14.3924 48.3241 12.2536 51.0147 12.2536C53.7152 12.2536 55.611 14.3924 55.611 17.4502C55.611 20.557 53.7605 22.6489 51.0147 22.6489V22.6487ZM51.0147 7.68467C45.3163 7.68467 41.1841 11.7928 41.1841 17.4502C41.1841 23.1076 45.3163 27.2148 51.0147 27.2148C56.7228 27.2148 60.8782 23.1076 60.8782 17.4502C60.8782 11.7928 56.7228 7.68467 51.0147 7.68467Z" fill="#273B7D"/>
<path d="M166.058 22.649C163.368 22.649 161.493 20.5088 161.493 17.4504C161.493 14.3927 163.368 12.2539 166.058 12.2539C168.759 12.2539 170.655 14.3927 170.655 17.4504C170.655 20.5572 168.804 22.6492 166.058 22.6492V22.649ZM166.058 7.68491C160.361 7.68491 156.229 11.793 156.229 17.4504C156.229 23.1079 160.361 27.2151 166.058 27.2151C171.767 27.2151 175.921 23.1079 175.921 17.4504C175.921 11.793 171.767 7.68491 166.058 7.68491Z" fill="#499FDD"/>
<path d="M119.424 21.8193C116.49 21.8193 115.445 19.2554 115.445 16.8527C115.445 15.794 115.713 12.3438 119.142 12.3438C120.846 12.3438 123.118 12.833 123.118 17.0303C123.118 20.9891 121.108 21.8193 119.424 21.8193ZM125.904 8.02066C124.886 8.02066 124.102 8.42751 123.709 9.17015L123.561 9.45845L123.312 9.24228C122.446 8.49135 120.892 7.60075 118.37 7.60075C113.351 7.60075 109.973 11.3759 109.973 16.9939C109.973 22.6051 113.469 26.5267 118.471 26.5267C120.18 26.5267 121.53 26.1274 122.6 25.3157L123.014 25.0041V25.5284C123.014 28.047 121.388 29.4364 118.44 29.4364C117.007 29.4364 115.703 29.0871 114.831 28.7703C113.692 28.4262 113.025 28.711 112.563 29.855L112.137 30.9106L111.534 32.4526L111.908 32.6517C113.795 33.6546 116.251 34.2532 118.471 34.2532C123.042 34.2532 128.379 31.91 128.379 25.3157L128.398 8.02066H125.905" fill="#273B7D"/>
<path d="M9.94677 22.4335L5.57782 22.4292V17.1977C5.57782 16.0796 6.01061 15.4982 6.9673 15.3644H9.94677C12.0734 15.3644 13.4474 16.7079 13.4489 18.8809C13.4474 21.111 12.1075 22.4322 9.94677 22.4335ZM5.57782 8.32107V6.9443C5.57782 5.73925 6.08695 5.16614 7.20421 5.09248H9.43974C11.357 5.09248 12.5054 6.24175 12.5054 8.16417C12.5054 9.63029 11.7193 11.3409 9.51026 11.3409H5.57782V8.32107ZM15.5266 13.5423L14.7367 13.0977L15.4262 12.5072C16.2279 11.8166 17.5722 10.2644 17.5722 7.58235C17.5722 3.4784 14.3939 0.829681 9.47467 0.829681H3.86087V0.828156H3.22171C1.76329 0.881762 0.596396 2.0696 0.580078 3.53942V26.8332H3.15637C3.1629 26.8345 3.16509 26.8332 3.16726 26.8345L9.58555 26.8332C15.0539 26.8332 18.5835 23.8521 18.5835 19.2346C18.5835 16.7486 17.4427 14.6231 15.5254 13.5423" fill="#273B7D"/>
<path d="M199.897 7.70437C197.67 7.70437 195.518 8.74882 194.135 10.5004L193.747 10.994L193.441 10.4418C192.448 8.62636 190.737 7.70437 188.358 7.70437C185.863 7.70437 184.19 9.09835 183.412 9.92708L182.904 10.4788L182.708 9.75318C182.424 8.70873 181.496 8.13344 180.089 8.13344H177.834L177.812 26.9181H182.937V18.6259C182.937 17.8996 183.027 17.1807 183.209 16.4294C183.699 14.4257 185.043 12.2705 187.303 12.486C188.697 12.6198 189.378 13.6987 189.378 15.7824V26.9181H194.54V18.6259C194.54 17.7183 194.624 17.0389 194.829 16.357C195.244 14.4442 196.648 12.4832 198.829 12.4832C200.407 12.4832 200.99 13.3782 200.99 15.7824V24.172C200.99 26.07 201.836 26.9181 203.729 26.9181H206.142L206.146 14.926C206.146 10.1354 204.04 7.70437 199.896 7.70437H199.897ZM153.262 20.396C153.247 20.4145 151.041 22.7438 148.137 22.7438C145.492 22.7438 142.819 21.118 142.819 17.4886C142.819 14.3551 144.891 12.165 147.857 12.165C148.821 12.165 149.916 12.5106 150.088 13.092L150.113 13.1901C150.508 14.5082 151.704 14.5789 151.939 14.5789L154.747 14.5819V12.1234C154.747 8.88066 150.629 7.70459 147.857 7.70459C141.931 7.70459 137.631 11.8371 137.631 17.5281C137.631 23.2167 141.884 27.3435 147.749 27.3435C152.837 27.3435 155.604 23.9935 155.63 23.9602L155.778 23.7787L153.554 20.084L153.262 20.3962" fill="#499FDD"/>
</svg>
