<svg width="20" height="20" viewBox="0 0 20 20" fill="none" xmlns="http://www.w3.org/2000/svg">
<path d="M15.9741 10.8047V14.9277H13.584V11.0814C13.584 10.1153 13.2393 9.45555 12.3732 9.45555C11.7135 9.45555 11.3209 9.90031 11.1477 10.3303C11.0842 10.4835 11.0685 10.6968 11.0685 10.9126V14.9278H8.67756C8.67756 14.9278 8.70976 8.41283 8.67756 7.73839H11.0685V8.75751C11.0642 8.76535 11.0572 8.77307 11.0528 8.78091H11.0685V8.75751C11.3862 8.26843 11.9528 7.56943 13.2228 7.56943C14.7956 7.56943 15.9741 8.59735 15.9741 10.8047ZM6.1778 4.27319C5.3596 4.27319 4.8252 4.81023 4.8252 5.51527C4.8252 6.20547 5.34396 6.75723 6.14648 6.75723H6.16128C6.99512 6.75723 7.51388 6.20551 7.51388 5.51527C7.4982 4.81027 6.99512 4.27319 6.1778 4.27319ZM4.96708 14.9278H7.35632V7.73839H4.96708V14.9278Z" fill="#0A7BBA"/>
</svg>
