<svg width="20" height="20" viewBox="0 0 20 20" fill="none" xmlns="http://www.w3.org/2000/svg">
<g id="Pinterest">
<path id="Subtract" d="M7.03305 19.4724C7.4443 18.807 8.04372 17.7376 8.26376 16.8772C8.38722 16.41 8.88926 14.5084 8.88926 14.5084C9.21026 15.1313 10.165 15.6559 11.1773 15.6559C14.1897 15.6559 16.3625 12.8936 16.3625 9.45916C16.3625 6.16408 13.6629 3.70508 10.1979 3.70508C5.87693 3.70508 3.58887 6.59033 3.58887 9.72966C3.58887 11.1969 4.37076 13.0084 5.6218 13.5903C5.8111 13.6805 5.9181 13.6395 5.95922 13.4592C5.97286 13.4014 6.01054 13.2508 6.05526 13.0719C6.11845 12.8193 6.1957 12.5104 6.23905 12.328C6.26376 12.2297 6.25551 12.1395 6.17322 12.0412C5.76172 11.5412 5.43247 10.6231 5.43247 9.77066C5.43247 7.57391 7.10326 5.45099 9.95101 5.45099C12.4119 5.45099 14.1321 7.11491 14.1321 9.50016C14.1321 12.1887 12.7658 14.0575 10.9881 14.0575C10.0086 14.0575 9.26789 13.2461 9.50655 12.2542C9.60911 11.8312 9.74399 11.3966 9.87519 10.974C10.1125 10.2094 10.3378 9.48358 10.3378 8.93458C10.3378 8.17229 9.9263 7.53295 9.07035 7.53295C8.06622 7.53295 7.25964 8.56574 7.25964 9.95099C7.25964 10.828 7.55593 11.4264 7.55593 11.4264C7.55593 11.4264 6.5683 15.5985 6.38722 16.3772C6.18989 17.237 6.26361 18.4484 6.35402 19.2354C6.57659 19.3222 6.80304 19.4013 7.03305 19.4724Z" fill="#CC2127"/>
</g>
</svg>
