<svg width="93" height="16" viewBox="0 0 93 16" fill="none" xmlns="http://www.w3.org/2000/svg">
<g id="rating">
<path id="Star 11" d="M8 0L10.022 5.21698L15.6085 5.52786L11.2716 9.06302L12.7023 14.4721L8 11.44L3.29772 14.4721L4.72837 9.06302L0.391548 5.52786L5.97802 5.21698L8 0Z" fill="#FAB33F"/>
<path id="Star 12" d="M27.2002 0L29.2222 5.21698L34.8086 5.52786L30.4718 9.06302L31.9025 14.4721L27.2002 11.44L22.4979 14.4721L23.9286 9.06302L19.5917 5.52786L25.1782 5.21698L27.2002 0Z" fill="#FAB33F"/>
<path id="Star 13" d="M46.4004 0L48.4224 5.21698L54.0088 5.52786L49.672 9.06302L51.1027 14.4721L46.4004 11.44L41.6981 14.4721L43.1288 9.06302L38.7919 5.52786L44.3784 5.21698L46.4004 0Z" fill="#FAB33F"/>
<path id="Star 14" d="M65.5996 0L67.6216 5.21698L73.2081 5.52786L68.8712 9.06302L70.3019 14.4721L65.5996 11.44L60.8973 14.4721L62.328 9.06302L57.9912 5.52786L63.5776 5.21698L65.5996 0Z" fill="#FAB33F"/>
<path id="Star 15" d="M84.7998 0L86.8218 5.21698L92.4083 5.52786L88.0714 9.06302L89.5021 14.4721L84.7998 11.44L80.0975 14.4721L81.5282 9.06302L77.1914 5.52786L82.7778 5.21698L84.7998 0Z" fill="#FAB33F"/>
</g>
</svg>
