<svg width="178" height="189" viewBox="0 0 178 189" fill="none" xmlns="http://www.w3.org/2000/svg">
<g opacity="0.25">
<path opacity="0.25" d="M0 171.91C0 165.247 5.40116 159.846 12.0638 159.846C18.7265 159.846 24.1277 165.247 24.1277 171.91V189H0V171.91Z" fill="#FAFAFA"/>
<path opacity="0.5" d="M15.0798 152.306C15.0798 137.593 27.0073 125.665 41.7207 125.665C56.4341 125.665 68.3617 137.593 68.3617 152.306V189H15.0798V152.306Z" fill="#FAFAFA"/>
<path opacity="0.75" d="M50.2659 127.675C50.2659 103.246 70.0702 83.4414 94.5 83.4414C118.93 83.4414 138.734 103.246 138.734 127.675V189H50.2659V127.675Z" fill="#FAFAFA"/>
<path d="M112.596 62.8324C112.596 28.131 140.727 0 175.428 0C210.13 0 238.261 28.131 238.261 62.8324V189H112.596V62.8324Z" fill="#FAFAFA" fill-opacity="0.5"/>
</g>
</svg>
