<svg width="20" height="20" viewBox="0 0 20 20" fill="none" xmlns="http://www.w3.org/2000/svg">
<path d="M16.1252 7.18693C15.6967 7.37695 15.2357 7.50547 14.7522 7.56287C15.2458 7.26714 15.6246 6.79921 15.8034 6.24073C15.3416 6.51472 14.8298 6.71347 14.2856 6.82061C13.8495 6.35624 13.2283 6.06604 12.5404 6.06604C11.2206 6.06604 10.1502 7.13648 10.1502 8.4563C10.1502 8.64365 10.1714 8.82601 10.2124 9.00106C8.22587 8.90141 6.4645 7.94987 5.2855 6.50331C5.07979 6.85626 4.96179 7.26714 4.96179 7.70512C4.96179 8.5342 5.38408 9.26613 6.0251 9.69466C5.63346 9.68236 5.26465 9.57487 4.94254 9.39536C4.94236 9.40552 4.94236 9.41568 4.94236 9.42567C4.94236 10.5838 5.76662 11.5498 6.85988 11.7692C6.65952 11.8241 6.44792 11.8532 6.23027 11.8532C6.0759 11.8532 5.92634 11.8384 5.78053 11.8106C6.08463 12.76 6.96719 13.4511 8.01339 13.4705C7.19518 14.1117 6.16467 14.4937 5.0445 14.4937C4.85198 14.4937 4.66125 14.4825 4.47461 14.4602C5.53186 15.1387 6.78857 15.5342 8.13834 15.5342C12.5349 15.5342 14.9392 11.892 14.9392 8.73313C14.9392 8.62957 14.9369 8.52636 14.9323 8.42404C15.3997 8.08713 15.8049 7.66626 16.1252 7.18693Z" fill="#55ACEE"/>
</svg>
