<svg width="21" height="19" viewBox="0 0 21 19" fill="none" xmlns="http://www.w3.org/2000/svg">
<path d="M20.9708 7.15784C20.9009 6.94823 20.7148 6.79547 20.4908 6.76382L14.1977 5.87364L11.3833 0.32269C11.2831 0.125085 11.0764 0 10.85 0C10.6236 0 10.4169 0.125085 10.3167 0.32269L7.50217 5.87364L1.20919 6.76382C0.985221 6.79547 0.799073 6.94823 0.729133 7.1578C0.659154 7.3674 0.717516 7.59747 0.879638 7.75127L5.43316 12.0721L4.35838 18.1732C4.32008 18.3905 4.41182 18.6099 4.59496 18.7395C4.69856 18.8127 4.82127 18.85 4.94458 18.85C5.03926 18.85 5.13425 18.828 5.22124 18.7835L10.85 15.9029L16.4785 18.7835C16.6789 18.886 16.9217 18.8689 17.1048 18.7394C17.288 18.6099 17.3797 18.3904 17.3415 18.1732L16.2663 12.0721L20.8204 7.75123C20.9825 7.59747 21.0409 7.3674 20.9708 7.15784Z" fill="#EBEBEB"/>
</svg>
