<svg width="49" height="36" viewBox="0 0 49 36" fill="none" xmlns="http://www.w3.org/2000/svg">
<path d="M36.625 0.749992C38.7083 0.749992 40.5 1.12499 42 1.87499C43.5 2.62499 44.6667 3.70833 45.5 5.125C46.4167 6.29166 47.0833 7.83333 47.5 9.75C48 11.6667 48.25 13.5833 48.25 15.5C48.25 19.6667 47.1667 23.5417 45 27.125C42.9167 30.625 39.625 33.4167 35.125 35.5L34 33.25C36.3333 32.25 38.4167 30.7083 40.25 28.625C42.0833 26.5417 43.1667 24.4167 43.5 22.25C43.9167 20.4167 43.9167 18.6667 43.5 17C41.6667 19 39.25 20 36.25 20C33.3333 20 30.9583 19.1667 29.125 17.5C27.2917 15.75 26.375 13.375 26.375 10.375C26.375 7.45833 27.3333 5.125 29.25 3.375C31.25 1.62499 33.7083 0.749992 36.625 0.749992ZM10.875 0.749992C12.9583 0.749992 14.75 1.12499 16.25 1.87499C17.75 2.62499 18.9167 3.70833 19.75 5.125C20.6667 6.29166 21.3333 7.83333 21.75 9.75C22.25 11.6667 22.5 13.5833 22.5 15.5C22.5 19.6667 21.4167 23.5417 19.25 27.125C17.1667 30.625 13.875 33.4167 9.375 35.5L8.25 33.25C10.5833 32.25 12.6667 30.7083 14.5 28.625C16.3333 26.5417 17.4167 24.4167 17.75 22.25C18.1667 20.4167 18.1667 18.6667 17.75 17C15.9167 19 13.5 20 10.5 20C7.58333 20 5.20833 19.1667 3.375 17.5C1.54167 15.75 0.625 13.375 0.625 10.375C0.625 7.45833 1.58333 5.125 3.5 3.375C5.5 1.62499 7.95833 0.749992 10.875 0.749992Z" fill="black"/>
</svg>
